<?xml version="1.0" standalone="no"?>
<!DOCTYPE svg PUBLIC "-//W3C//DTD SVG 20010904//EN"
 "http://www.w3.org/TR/2001/REC-SVG-20010904/DTD/svg10.dtd">
<svg version="1.0" xmlns="http://www.w3.org/2000/svg"
 width="210.000000pt" height="260.000000pt" viewBox="0 0 210.000000 260.000000"
 preserveAspectRatio="xMidYMid meet">

<g transform="translate(0.000000,260.000000) scale(0.100000,-0.100000)"
fill="#000000" stroke="none">
<path d="M82 2583 c-18 -8 -43 -30 -55 -47 l-22 -31 0 -1205 0 -1205 22 -31
c48 -67 -8 -64 1023 -64 1038 0 976 -4 1026 69 l24 36 0 1188 c0 1316 4 1231
-64 1280 l-31 22 -945 2 c-855 2 -948 1 -978 -14z m1132 -791 c91 -42 149
-100 194 -190 35 -72 37 -81 37 -172 0 -91 -2 -100 -37 -172 -45 -91 -103
-147 -196 -191 -61 -29 -76 -32 -162 -32 -86 0 -101 3 -162 32 -93 44 -151
100 -196 191 -35 72 -37 81 -37 171 0 87 3 102 32 163 40 85 97 147 172 186
78 42 122 52 213 48 61 -3 92 -11 142 -34z m-540 -916 c76 -129 226 -216 376
-216 150 0 300 87 377 217 l26 45 106 -4 c96 -3 111 -6 161 -34 60 -33 112
-99 130 -162 5 -20 10 -92 10 -159 l0 -123 -811 0 -811 0 4 143 c3 137 4 144
34 197 32 58 99 112 158 129 17 5 72 10 123 10 l91 1 26 -44z"/>
</g>
</svg>
