<?xml version="1.0" standalone="no"?>
<!DOCTYPE svg PUBLIC "-//W3C//DTD SVG 20010904//EN"
 "http://www.w3.org/TR/2001/REC-SVG-20010904/DTD/svg10.dtd">
<svg version="1.0" xmlns="http://www.w3.org/2000/svg"
 width="90.000000pt" height="90.000000pt" viewBox="0 0 90.000000 90.000000"
 preserveAspectRatio="xMidYMid meet">

<g transform="translate(0.000000,90.000000) scale(0.100000,-0.100000)"
fill="#000000" stroke="none">
<path d="M80 700 c-19 -19 -20 -33 -20 -280 0 -247 1 -261 20 -280 19 -19 33
-20 370 -20 337 0 351 1 370 20 19 19 20 33 20 280 0 247 -1 261 -20 280 -19
19 -33 20 -370 20 -337 0 -351 -1 -370 -20z m125 -280 l0 -235 -25 0 -25 0 -3
225 c-1 123 0 231 3 238 3 7 15 12 27 10 l23 -3 0 -235z m416 225 c88 -31 159
-131 159 -225 0 -125 -114 -240 -238 -240 -59 0 -112 22 -162 67 -107 96 -107
250 0 346 73 66 153 83 241 52z"/>
<path d="M495 531 c-45 -20 -70 -60 -70 -112 0 -42 5 -53 33 -81 28 -28 39
-33 82 -33 43 0 54 5 82 33 28 28 33 39 33 82 0 42 -5 54 -31 81 -33 33 -92
46 -129 30z m70 -111 c0 -18 -6 -26 -23 -28 -13 -2 -25 3 -28 12 -10 26 4 48
28 44 17 -2 23 -10 23 -28z"/>
</g>
</svg>
