<?xml version="1.0" standalone="no"?>
<!DOCTYPE svg PUBLIC "-//W3C//DTD SVG 20010904//EN"
 "http://www.w3.org/TR/2001/REC-SVG-20010904/DTD/svg10.dtd">
<svg version="1.0" xmlns="http://www.w3.org/2000/svg"
 width="90.000000pt" height="90.000000pt" viewBox="0 0 90.000000 90.000000"
 preserveAspectRatio="xMidYMid meet">

<g transform="translate(0.000000,90.000000) scale(0.100000,-0.100000)"
fill="#000000" stroke="none">
<path d="M271 703 c-93 -76 -172 -144 -175 -152 -8 -18 12 -41 35 -41 18 0 19
-10 19 -175 0 -162 2 -177 20 -195 19 -19 33 -20 280 -20 247 0 261 1 280 20
18 18 20 33 20 195 0 165 1 175 19 175 23 0 43 23 36 41 -4 8 -31 34 -61 58
l-54 43 0 67 c0 71 -10 91 -46 91 -27 0 -41 -17 -46 -52 l-3 -28 -69 55 c-38
30 -72 55 -77 55 -4 0 -84 -62 -178 -137z m269 -403 l0 -120 -90 0 -90 0 0
120 0 120 90 0 90 0 0 -120z"/>
</g>
</svg>
