<?xml version="1.0" standalone="no"?>
<!DOCTYPE svg PUBLIC "-//W3C//DTD SVG 20010904//EN"
 "http://www.w3.org/TR/2001/REC-SVG-20010904/DTD/svg10.dtd">
<svg version="1.0" xmlns="http://www.w3.org/2000/svg"
 width="90.000000pt" height="90.000000pt" viewBox="0 0 90.000000 90.000000"
 preserveAspectRatio="xMidYMid meet">

<g transform="translate(0.000000,90.000000) scale(0.100000,-0.100000)"
fill="#000000" stroke="none">
<path d="M7 803 c-4 -3 -7 -55 -7 -115 0 -86 3 -110 15 -114 22 -9 195 94 195
116 0 13 -27 34 -89 69 -89 51 -102 56 -114 44z"/>
<path d="M696 755 c-65 -15 -104 -29 -113 -41 -10 -13 -13 -65 -13 -205 l0
-187 -27 -10 c-16 -6 -39 -14 -53 -18 -91 -25 -130 -137 -70 -202 39 -42 122
-41 165 2 37 37 45 88 45 296 l0 196 89 18 c120 24 123 27 119 106 -4 78 -1
78 -142 45z"/>
<path d="M270 690 l0 -30 109 0 c84 0 111 3 121 15 10 12 10 18 0 30 -10 12
-37 15 -121 15 l-109 0 0 -30z"/>
<path d="M127 554 c-58 -32 -29 -39 170 -42 160 -2 192 0 203 13 10 12 10 18
0 30 -18 22 -332 21 -373 -1z"/>
<path d="M100 405 c-10 -12 -10 -18 0 -30 10 -12 45 -15 200 -15 155 0 190 3
200 15 10 12 10 18 0 30 -10 12 -45 15 -200 15 -155 0 -190 -3 -200 -15z"/>
<path d="M100 255 c-10 -12 -10 -18 0 -30 10 -12 37 -15 121 -15 108 0 110 0
119 26 6 14 10 27 10 30 0 2 -53 4 -119 4 -93 0 -121 -3 -131 -15z"/>
</g>
</svg>
